<svg xmlns="http://www.w3.org/2000/svg" version="1.1" xmlns:xlink="http://www.w3.org/1999/xlink" xmlns:svgjs="http://svgjs.dev/svgjs" width="1440" height="560" preserveAspectRatio="none" viewBox="0 0 1440 560"><g mask="url(&quot;#SvgjsMask1591&quot;)" fill="none"><rect width="1440" height="560" x="0" y="0" fill="rgba(0, 0, 0, 1)"></rect><use xlink:href="#SvgjsG1596" transform="translate(0, 0)" fill="rgba(153, 147, 41, 1)"></use><use xlink:href="#SvgjsG1596" transform="translate(624, 0)" fill="rgba(153, 147, 41, 1)"></use><use xlink:href="#SvgjsG1596" transform="translate(1248, 0)" fill="rgba(153, 147, 41, 1)"></use></g><defs><mask id="SvgjsMask1591"><rect width="1440" height="560" fill="#ffffff"></rect></mask><g id="SvgjsG1595"><path d="M7.45 12.652S6.4 11.121 3.725 11.121C1.274 11.121 0 11.833 0 11.833V1.937s1.274-0.712 3.725-0.729C6.4 1.19 7.45 2.756 7.45 2.756V12.652z m1.087 0s1.05-1.531 3.725-1.531c2.451 0 3.725 0.712 3.725 0.713V1.937s-1.274-0.712-3.725-0.729c-2.675-0.017-3.725 1.548-3.725 1.548v9.896z"></path><path d="M8.012 15.733S6.4 13.411 3.725 13.411c-2.451 0-3.725 0.712-3.725 0.712v-1.186s1.274-0.712 3.725-0.729c2.675-0.018 4.287 2.34 4.287 2.34V15.733z m0 0s1.612-2.323 4.287-2.323c2.451 0 3.725 0.712 3.725 0.712v-1.185s-1.274-0.712-3.725-0.729c-2.675-0.019-4.287 2.339-4.287 2.339v1.185z"></path></g><g id="SvgjsG1594"><path d="M15.065 12.151H0.02c0 1.333 1.015 1.95 1.83 1.95h11.386c0.975 0 1.83-0.767 1.829-1.951zM12.853 2.166H1.869v7.208c0 0.976 0.843 1.75 1.755 1.75h7.121c1.031 0 1.731-0.863 1.731-1.749V8.773c2.031 0 3.505-1.527 3.505-3.303 0-1.815-1.445-3.303-3.126-3.303z m1.832 3.305c0 1.036-0.763 2.025-2.21 1.931V3.519l0.378 0 0 0.001c1.391 0 1.837 1.318 1.832 1.952v-0.001z"></path></g><g id="SvgjsG1593"><path d="M8.43 3.58a1.188 1.188 0 0 0 0-2.372 1.186 1.186 0 0 0 0 2.372"></path><path d="M9.314 3.844h-1.73L4.634 0.894A0.6 0.6 0 0 0 3.78 0.874a0.6 0.6 0 0 0-0.024 0.856l3.08 3.086v10.228a0.664 0.664 0 0 0 1.334 0V9.496h0.54v5.548c0 0.37 0.304 0.668 0.67 0.668 0.368 0 0.664-0.3 0.664-0.668L10.04 4.816 13.12 1.73a0.6 0.6 0 0 0-0.02-0.854 0.6 0.6 0 0 0-0.856 0.02L9.314 3.84z"></path></g><g id="SvgjsG1592"><path d="M7.996 16h-0.001c-2.137-0.001-4.145-0.834-5.655-2.345C0.829 12.142-0.002 10.132 0 7.995-0.002 5.861 0.828 3.853 2.338 2.342 3.848 0.832 5.855 0 7.99 0h0.01C10.136 0 12.146 0.832 13.656 2.342c1.51 1.51 2.342 3.518 2.344 5.653-0.002 2.139-0.835 4.148-2.346 5.66-1.512 1.511-3.521 2.344-5.658 2.345z m-0.006-14.161c-1.644 0-3.189 0.64-4.351 1.804-1.162 1.163-1.801 2.708-1.8 4.352-0.001 1.648 0.639 3.196 1.802 4.359 1.163 1.164 2.709 1.805 4.354 1.807 3.398-0.002 6.163-2.768 6.167-6.166-0.002-3.394-2.765-6.155-6.16-6.155h-0.01z"></path><path d="M8.692 7.143V5.35c0.511 0.037 0.91 0.544 0.957 1.062h1.697c0.002-1.741-1.581-2.657-2.672-2.724v-1.175H7.056v1.175c-0.476 0.004-2.622 0.611-2.62 2.558-0.003 1.733 1.545 2.206 2.62 2.358v1.959c-0.783-0.222-0.926-0.824-1.036-1.323h-1.723c0.11 1.949 1.823 2.856 2.759 2.995v1.202h1.636v-1.184c1.294-0.07 2.827-1.187 2.829-2.716-0.002-1.758-1.529-2.256-2.829-2.393zM7.064 6.855c-1.152-0.018-1.175-1.281 0-1.488v1.488z m1.645 3.717V8.883c1.427 0.039 1.586 1.462 0 1.689z"></path></g><g id="SvgjsG1596"><use xlink:href="#SvgjsG1592" transform="translate(0, 0) scale(2.6)" fill="rgba(153, 147, 41, 1)"></use><use xlink:href="#SvgjsG1592" transform="translate(0, 62.400000000000006) scale(2.6)" fill="rgba(153, 147, 41, 1)"></use><use xlink:href="#SvgjsG1593" transform="translate(0, 124.80000000000001) scale(2.6)" fill="rgba(153, 147, 41, 1)"></use><use xlink:href="#SvgjsG1594" transform="translate(0, 187.20000000000002) scale(2.6)" fill="rgba(153, 147, 41, 1)"></use><use xlink:href="#SvgjsG1594" transform="translate(0, 249.60000000000002) scale(2.6)" fill="rgba(153, 147, 41, 1)"></use><use xlink:href="#SvgjsG1593" transform="translate(0, 312) scale(2.6)" fill="rgba(153, 147, 41, 1)"></use><use xlink:href="#SvgjsG1594" transform="translate(0, 374.40000000000003) scale(2.6)" fill="rgba(153, 147, 41, 1)"></use><use xlink:href="#SvgjsG1592" transform="translate(0, 436.80000000000007) scale(2.6)" fill="rgba(153, 147, 41, 1)"></use><use xlink:href="#SvgjsG1592" transform="translate(0, 499.20000000000005) scale(2.6)" fill="rgba(153, 147, 41, 1)"></use><use xlink:href="#SvgjsG1594" transform="translate(62.400000000000006, 0) scale(2.6)" fill="rgba(153, 147, 41, 1)"></use><use xlink:href="#SvgjsG1592" transform="translate(62.400000000000006, 62.400000000000006) scale(2.6)" fill="rgba(153, 147, 41, 1)"></use><use xlink:href="#SvgjsG1595" transform="translate(62.400000000000006, 124.80000000000001) scale(2.6)" fill="rgba(153, 147, 41, 1)"></use><use xlink:href="#SvgjsG1593" transform="translate(62.400000000000006, 187.20000000000002) scale(2.6)" fill="rgba(153, 147, 41, 1)"></use><use xlink:href="#SvgjsG1595" transform="translate(62.400000000000006, 249.60000000000002) scale(2.6)" fill="rgba(153, 147, 41, 1)"></use><use xlink:href="#SvgjsG1594" transform="translate(62.400000000000006, 312) scale(2.6)" fill="rgba(153, 147, 41, 1)"></use><use xlink:href="#SvgjsG1592" transform="translate(62.400000000000006, 374.40000000000003) scale(2.6)" fill="rgba(153, 147, 41, 1)"></use><use xlink:href="#SvgjsG1592" transform="translate(62.400000000000006, 436.80000000000007) scale(2.6)" fill="rgba(153, 147, 41, 1)"></use><use xlink:href="#SvgjsG1592" transform="translate(62.400000000000006, 499.20000000000005) scale(2.6)" fill="rgba(153, 147, 41, 1)"></use><use xlink:href="#SvgjsG1592" transform="translate(124.80000000000001, 0) scale(2.6)" fill="rgba(153, 147, 41, 1)"></use><use xlink:href="#SvgjsG1593" transform="translate(124.80000000000001, 62.400000000000006) scale(2.6)" fill="rgba(153, 147, 41, 1)"></use><use xlink:href="#SvgjsG1595" transform="translate(124.80000000000001, 124.80000000000001) scale(2.6)" fill="rgba(153, 147, 41, 1)"></use><use xlink:href="#SvgjsG1595" transform="translate(124.80000000000001, 187.20000000000002) scale(2.6)" fill="rgba(153, 147, 41, 1)"></use><use xlink:href="#SvgjsG1594" transform="translate(124.80000000000001, 249.60000000000002) scale(2.6)" fill="rgba(153, 147, 41, 1)"></use><use xlink:href="#SvgjsG1593" transform="translate(124.80000000000001, 312) scale(2.6)" fill="rgba(153, 147, 41, 1)"></use><use xlink:href="#SvgjsG1593" transform="translate(124.80000000000001, 374.40000000000003) scale(2.6)" fill="rgba(153, 147, 41, 1)"></use><use xlink:href="#SvgjsG1594" transform="translate(124.80000000000001, 436.80000000000007) scale(2.6)" fill="rgba(153, 147, 41, 1)"></use><use xlink:href="#SvgjsG1594" transform="translate(124.80000000000001, 499.20000000000005) scale(2.6)" fill="rgba(153, 147, 41, 1)"></use><use xlink:href="#SvgjsG1592" transform="translate(187.20000000000002, 0) scale(2.6)" fill="rgba(153, 147, 41, 1)"></use><use xlink:href="#SvgjsG1594" transform="translate(187.20000000000002, 62.400000000000006) scale(2.6)" fill="rgba(153, 147, 41, 1)"></use><use xlink:href="#SvgjsG1595" transform="translate(187.20000000000002, 124.80000000000001) scale(2.6)" fill="rgba(153, 147, 41, 1)"></use><use xlink:href="#SvgjsG1594" transform="translate(187.20000000000002, 187.20000000000002) scale(2.6)" fill="rgba(153, 147, 41, 1)"></use><use xlink:href="#SvgjsG1595" transform="translate(187.20000000000002, 249.60000000000002) scale(2.6)" fill="rgba(153, 147, 41, 1)"></use><use xlink:href="#SvgjsG1592" transform="translate(187.20000000000002, 312) scale(2.6)" fill="rgba(153, 147, 41, 1)"></use><use xlink:href="#SvgjsG1594" transform="translate(187.20000000000002, 374.40000000000003) scale(2.6)" fill="rgba(153, 147, 41, 1)"></use><use xlink:href="#SvgjsG1593" transform="translate(187.20000000000002, 436.80000000000007) scale(2.6)" fill="rgba(153, 147, 41, 1)"></use><use xlink:href="#SvgjsG1592" transform="translate(187.20000000000002, 499.20000000000005) scale(2.6)" fill="rgba(153, 147, 41, 1)"></use><use xlink:href="#SvgjsG1593" transform="translate(249.60000000000002, 0) scale(2.6)" fill="rgba(153, 147, 41, 1)"></use><use xlink:href="#SvgjsG1595" transform="translate(249.60000000000002, 62.400000000000006) scale(2.6)" fill="rgba(153, 147, 41, 1)"></use><use xlink:href="#SvgjsG1594" transform="translate(249.60000000000002, 124.80000000000001) scale(2.6)" fill="rgba(153, 147, 41, 1)"></use><use xlink:href="#SvgjsG1594" transform="translate(249.60000000000002, 187.20000000000002) scale(2.6)" fill="rgba(153, 147, 41, 1)"></use><use xlink:href="#SvgjsG1592" transform="translate(249.60000000000002, 249.60000000000002) scale(2.6)" fill="rgba(153, 147, 41, 1)"></use><use xlink:href="#SvgjsG1592" transform="translate(249.60000000000002, 312) scale(2.6)" fill="rgba(153, 147, 41, 1)"></use><use xlink:href="#SvgjsG1593" transform="translate(249.60000000000002, 374.40000000000003) scale(2.6)" fill="rgba(153, 147, 41, 1)"></use><use xlink:href="#SvgjsG1594" transform="translate(249.60000000000002, 436.80000000000007) scale(2.6)" fill="rgba(153, 147, 41, 1)"></use><use xlink:href="#SvgjsG1592" transform="translate(249.60000000000002, 499.20000000000005) scale(2.6)" fill="rgba(153, 147, 41, 1)"></use><use xlink:href="#SvgjsG1593" transform="translate(312, 0) scale(2.6)" fill="rgba(153, 147, 41, 1)"></use><use xlink:href="#SvgjsG1593" transform="translate(312, 62.400000000000006) scale(2.6)" fill="rgba(153, 147, 41, 1)"></use><use xlink:href="#SvgjsG1593" transform="translate(312, 124.80000000000001) scale(2.6)" fill="rgba(153, 147, 41, 1)"></use><use xlink:href="#SvgjsG1592" transform="translate(312, 187.20000000000002) scale(2.6)" fill="rgba(153, 147, 41, 1)"></use><use xlink:href="#SvgjsG1595" transform="translate(312, 249.60000000000002) scale(2.6)" fill="rgba(153, 147, 41, 1)"></use><use xlink:href="#SvgjsG1595" transform="translate(312, 312) scale(2.6)" fill="rgba(153, 147, 41, 1)"></use><use xlink:href="#SvgjsG1595" transform="translate(312, 374.40000000000003) scale(2.6)" fill="rgba(153, 147, 41, 1)"></use><use xlink:href="#SvgjsG1593" transform="translate(312, 436.80000000000007) scale(2.6)" fill="rgba(153, 147, 41, 1)"></use><use xlink:href="#SvgjsG1592" transform="translate(312, 499.20000000000005) scale(2.6)" fill="rgba(153, 147, 41, 1)"></use><use xlink:href="#SvgjsG1595" transform="translate(374.40000000000003, 0) scale(2.6)" fill="rgba(153, 147, 41, 1)"></use><use xlink:href="#SvgjsG1593" transform="translate(374.40000000000003, 62.400000000000006) scale(2.6)" fill="rgba(153, 147, 41, 1)"></use><use xlink:href="#SvgjsG1595" transform="translate(374.40000000000003, 124.80000000000001) scale(2.6)" fill="rgba(153, 147, 41, 1)"></use><use xlink:href="#SvgjsG1595" transform="translate(374.40000000000003, 187.20000000000002) scale(2.6)" fill="rgba(153, 147, 41, 1)"></use><use xlink:href="#SvgjsG1593" transform="translate(374.40000000000003, 249.60000000000002) scale(2.6)" fill="rgba(153, 147, 41, 1)"></use><use xlink:href="#SvgjsG1593" transform="translate(374.40000000000003, 312) scale(2.6)" fill="rgba(153, 147, 41, 1)"></use><use xlink:href="#SvgjsG1594" transform="translate(374.40000000000003, 374.40000000000003) scale(2.6)" fill="rgba(153, 147, 41, 1)"></use><use xlink:href="#SvgjsG1595" transform="translate(374.40000000000003, 436.80000000000007) scale(2.6)" fill="rgba(153, 147, 41, 1)"></use><use xlink:href="#SvgjsG1593" transform="translate(374.40000000000003, 499.20000000000005) scale(2.6)" fill="rgba(153, 147, 41, 1)"></use><use xlink:href="#SvgjsG1593" transform="translate(436.80000000000007, 0) scale(2.6)" fill="rgba(153, 147, 41, 1)"></use><use xlink:href="#SvgjsG1592" transform="translate(436.80000000000007, 62.400000000000006) scale(2.6)" fill="rgba(153, 147, 41, 1)"></use><use xlink:href="#SvgjsG1592" transform="translate(436.80000000000007, 124.80000000000001) scale(2.6)" fill="rgba(153, 147, 41, 1)"></use><use xlink:href="#SvgjsG1593" transform="translate(436.80000000000007, 187.20000000000002) scale(2.6)" fill="rgba(153, 147, 41, 1)"></use><use xlink:href="#SvgjsG1592" transform="translate(436.80000000000007, 249.60000000000002) scale(2.6)" fill="rgba(153, 147, 41, 1)"></use><use xlink:href="#SvgjsG1595" transform="translate(436.80000000000007, 312) scale(2.6)" fill="rgba(153, 147, 41, 1)"></use><use xlink:href="#SvgjsG1595" transform="translate(436.80000000000007, 374.40000000000003) scale(2.6)" fill="rgba(153, 147, 41, 1)"></use><use xlink:href="#SvgjsG1592" transform="translate(436.80000000000007, 436.80000000000007) scale(2.6)" fill="rgba(153, 147, 41, 1)"></use><use xlink:href="#SvgjsG1594" transform="translate(436.80000000000007, 499.20000000000005) scale(2.6)" fill="rgba(153, 147, 41, 1)"></use><use xlink:href="#SvgjsG1593" transform="translate(499.20000000000005, 0) scale(2.6)" fill="rgba(153, 147, 41, 1)"></use><use xlink:href="#SvgjsG1594" transform="translate(499.20000000000005, 62.400000000000006) scale(2.6)" fill="rgba(153, 147, 41, 1)"></use><use xlink:href="#SvgjsG1594" transform="translate(499.20000000000005, 124.80000000000001) scale(2.6)" fill="rgba(153, 147, 41, 1)"></use><use xlink:href="#SvgjsG1593" transform="translate(499.20000000000005, 187.20000000000002) scale(2.6)" fill="rgba(153, 147, 41, 1)"></use><use xlink:href="#SvgjsG1594" transform="translate(499.20000000000005, 249.60000000000002) scale(2.6)" fill="rgba(153, 147, 41, 1)"></use><use xlink:href="#SvgjsG1592" transform="translate(499.20000000000005, 312) scale(2.6)" fill="rgba(153, 147, 41, 1)"></use><use xlink:href="#SvgjsG1595" transform="translate(499.20000000000005, 374.40000000000003) scale(2.6)" fill="rgba(153, 147, 41, 1)"></use><use xlink:href="#SvgjsG1593" transform="translate(499.20000000000005, 436.80000000000007) scale(2.6)" fill="rgba(153, 147, 41, 1)"></use><use xlink:href="#SvgjsG1593" transform="translate(499.20000000000005, 499.20000000000005) scale(2.6)" fill="rgba(153, 147, 41, 1)"></use><use xlink:href="#SvgjsG1593" transform="translate(561.6, 0) scale(2.6)" fill="rgba(153, 147, 41, 1)"></use><use xlink:href="#SvgjsG1592" transform="translate(561.6, 62.400000000000006) scale(2.6)" fill="rgba(153, 147, 41, 1)"></use><use xlink:href="#SvgjsG1593" transform="translate(561.6, 124.80000000000001) scale(2.6)" fill="rgba(153, 147, 41, 1)"></use><use xlink:href="#SvgjsG1592" transform="translate(561.6, 187.20000000000002) scale(2.6)" fill="rgba(153, 147, 41, 1)"></use><use xlink:href="#SvgjsG1594" transform="translate(561.6, 249.60000000000002) scale(2.6)" fill="rgba(153, 147, 41, 1)"></use><use xlink:href="#SvgjsG1594" transform="translate(561.6, 312) scale(2.6)" fill="rgba(153, 147, 41, 1)"></use><use xlink:href="#SvgjsG1595" transform="translate(561.6, 374.40000000000003) scale(2.6)" fill="rgba(153, 147, 41, 1)"></use><use xlink:href="#SvgjsG1593" transform="translate(561.6, 436.80000000000007) scale(2.6)" fill="rgba(153, 147, 41, 1)"></use><use xlink:href="#SvgjsG1593" transform="translate(561.6, 499.20000000000005) scale(2.6)" fill="rgba(153, 147, 41, 1)"></use></g></defs></svg>