<svg xmlns="http://www.w3.org/2000/svg" xmlns:xlink="http://www.w3.org/1999/xlink" viewBox="0 0 430 430" width="430" height="430" preserveAspectRatio="xMidYMid meet" style="width: 100%; height: 100%; transform: translate3d(0px, 0px, 0px); content-visibility: visible;"><defs><clipPath id="__lottie_element_2"><rect width="430" height="430" x="0" y="0"/></clipPath><clipPath id="__lottie_element_4"><path d="M0,0 L430,0 L430,430 L0,430z"/></clipPath><filter id="__lottie_element_10" x="-100%" y="-100%" width="300%" height="300%"><feGaussianBlur result="filter_result_0" stdDeviation="52.5 52.5" edgeMode="wrap"/></filter><g id="__lottie_element_11"><g clip-path="url(#__lottie_element_12)" transform="matrix(1,0,0,1,0,0)" opacity="1" style="display: block;"><g transform="matrix(1,0,0,1,79.77000427246094,303.4300231933594)" opacity="1" style="display: block;"><g opacity="1" transform="matrix(1,0,0,1,0,0)"><path stroke-linecap="round" stroke-linejoin="round" fill-opacity="0" class="secondary" stroke="rgb(8,168,138)" stroke-opacity="1" stroke-width="12" d=" M0,-37.81999969482422 C0,-37.81999969482422 0,37.81999969482422 0,37.81999969482422"/></g></g><g transform="matrix(1,0,0,1,215.35499572753906,303.4300231933594)" opacity="1" style="display: block;"><g opacity="1" transform="matrix(1,0,0,1,0,0)"><path stroke-linecap="round" stroke-linejoin="round" fill-opacity="0" class="secondary" stroke="rgb(8,168,138)" stroke-opacity="1" stroke-width="12" d=" M96.73500061035156,0 C96.73500061035156,0 50.67499923706055,0 50.67499923706055,0 M7.675000190734863,0 C7.675000190734863,0 -96.73500061035156,0 -96.73500061035156,0"/></g></g><g transform="matrix(1,0,0,1,215,303.010009765625)" opacity="1" style="display: block;"><g opacity="1" transform="matrix(1,0,0,1,0,0)"><path stroke-linecap="round" stroke-linejoin="round" fill-opacity="0" class="primary" stroke="rgb(18,19,49)" stroke-opacity="1" stroke-width="12" d=" M172,-0.009999999776482582 C172,41.59000015258789 144.8800048828125,67.73999786376953 111.33999633789062,67.73999786376953 C111.33999633789062,67.73999786376953 -172,67.73999786376953 -172,67.73999786376953 C-172.00100708007812,63.862998962402344 -171.23800659179688,60.02399826049805 -169.75399780273438,56.44200134277344 C-168.27000427246094,52.86000061035156 -166.09500122070312,49.606998443603516 -163.3520050048828,46.867000579833984 C-160.60899353027344,44.12699890136719 -157.35299682617188,41.95399856567383 -153.77000427246094,40.4739990234375 C-150.18699645996094,38.99399948120117 -146.3470001220703,38.23500061035156 -142.47000122070312,38.2400016784668 C-142.47000122070312,38.2400016784668 102.16999816894531,38.2400016784668 102.16999816894531,38.2400016784668 C112.20099639892578,38.2400016784668 121.8219985961914,34.255001068115234 128.91600036621094,27.163000106811523 C136.00999450683594,20.070999145507812 139.9969940185547,10.451000213623047 140,0.41999998688697815 C140.00100708007812,-4.552000045776367 139.02200317382812,-9.475000381469727 137.11900329589844,-14.069000244140625 C135.21600341796875,-18.663000106811523 132.42599487304688,-22.836000442504883 128.90899658203125,-26.350000381469727 C125.39199829101562,-29.86400032043457 121.21700286865234,-32.652000427246094 116.62200164794922,-34.55099868774414 C112.0270004272461,-36.45000076293945 107.10199737548828,-37.42499923706055 102.12999725341797,-37.41999816894531 C102.12999725341797,-37.41999816894531 -141.67999267578125,-37.41999816894531 -141.67999267578125,-37.41999816894531 C-149.7209930419922,-37.41999816894531 -157.43299865722656,-40.6150016784668 -163.11900329589844,-46.30099868774414 C-168.80499267578125,-51.98699951171875 -172,-59.69900131225586 -172,-67.73999786376953 C-172,-67.73999786376953 111.37000274658203,-67.73999786376953 111.37000274658203,-67.73999786376953 C144.85000610351562,-67.73999786376953 172,-37.40999984741211 172,-0.009999999776482582z"/></g></g><g transform="matrix(1,0,0,1,350.22998046875,127.3949966430664)" opacity="1" style="display: block;"><g opacity="1" transform="matrix(1,0,0,1,0,0)"><path stroke-linecap="round" stroke-linejoin="round" fill-opacity="0" class="primary" stroke="rgb(18,19,49)" stroke-opacity="1" stroke-width="12" d=" M0,-37.82500076293945 C0,-37.82500076293945 0,37.82500076293945 0,37.82500076293945"/></g></g><g transform="matrix(1,0,0,1,259.17498779296875,127.38999938964844)" opacity="1" style="display: block;"><g opacity="1" transform="matrix(1,0,0,1,0,0)"><path stroke-linecap="round" stroke-linejoin="round" fill-opacity="0" class="primary" stroke="rgb(18,19,49)" stroke-opacity="1" stroke-width="12" d=" M-52.20500183105469,0 C-52.20500183105469,0 52.20500183105469,0 52.20500183105469,0"/></g></g><g transform="matrix(1,0,0,1,215,126.98999786376953)" opacity="1" style="display: block;"><g opacity="1" transform="matrix(1,0,0,1,0,0)"><path stroke-linecap="round" stroke-linejoin="round" fill-opacity="0" class="secondary" stroke="rgb(8,168,138)" stroke-opacity="1" stroke-width="12" d=" M-88.56099700927734,38.2400016784668 C-90.91600036621094,38.2400016784668 -102.12999725341797,38.2400016784668 -102.12999725341797,38.2400016784668 C-107.14900207519531,38.321998596191406 -112.13400268554688,37.40299987792969 -116.79499816894531,35.53900146484375 C-121.45600128173828,33.67499923706055 -125.6989974975586,30.900999069213867 -129.27699279785156,27.381000518798828 C-132.85499572753906,23.861000061035156 -135.6959991455078,19.663999557495117 -137.63600158691406,15.034000396728516 C-139.5760040283203,10.404000282287598 -140.5749969482422,5.434999942779541 -140.5749969482422,0.41499999165534973 C-140.5749969482422,-4.605000019073486 -139.5760040283203,-9.574000358581543 -137.63600158691406,-14.204000473022461 C-135.6959991455078,-18.833999633789062 -132.85499572753906,-23.0310001373291 -129.27699279785156,-26.551000595092773 C-125.6989974975586,-30.070999145507812 -121.45600128173828,-32.845001220703125 -116.79499816894531,-34.70899963378906 C-112.13400268554688,-36.573001861572266 -107.14900207519531,-37.492000579833984 -102.12999725341797,-37.40999984741211 C-102.12999725341797,-37.40999984741211 141.67999267578125,-37.40999984741211 141.67999267578125,-37.40999984741211 C145.66200256347656,-37.409000396728516 149.6060028076172,-38.19200134277344 153.28500366210938,-39.71500015258789 C156.96400451660156,-41.237998962402344 160.30599975585938,-43.47200012207031 163.1219940185547,-46.28799819946289 C165.93800354003906,-49.104000091552734 168.1719970703125,-52.44599914550781 169.69500732421875,-56.125 C171.21800231933594,-59.80400085449219 172.00100708007812,-63.74800109863281 172,-67.7300033569336 C172,-67.7300033569336 172,-67.7300033569336 172,-67.7300033569336 C172,-67.7300033569336 -111.37000274658203,-67.7300033569336 -111.37000274658203,-67.7300033569336 C-144.85000610351562,-67.7300033569336 -172,-37.400001525878906 -172,0.009999999776482582 C-172,41.56999969482422 -144.8800048828125,67.7300033569336 -111.33999633789062,67.7300033569336 C-111.33999633789062,67.7300033569336 172,67.7300033569336 172,67.7300033569336 C172,59.90599822998047 168.89199829101562,52.402000427246094 163.36000061035156,46.869998931884766 C157.8280029296875,41.3380012512207 150.32400512695312,38.22999954223633 142.5,38.22999954223633 C142.5,38.22999954223633 -41.43199920654297,38.22999954223633 -47.354000091552734,38.22999954223633"/></g></g><g mask="url(#__lottie_element_36_2)" style="display: block;"><g transform="matrix(1,0,0,1,147.18499755859375,151.5)" opacity="1"><path fill="rgb(255,0,0)" fill-opacity="1" d=" M-19.593000411987305,-60.492000579833984 C-19.593000411987305,-59.071998596191406 -19.594999313354492,-51.512001037597656 -19.600000381469727,-49.83300018310547 C-19.673999786376953,-22.351999282836914 -20.315000534057617,37 -20.315000534057617,37 C-20.315000534057617,37 -0.004999999888241291,14.15999984741211 -0.004999999888241291,14.15999984741211 C-0.004999999888241291,14.15999984741211 20.315000534057617,37 20.315000534057617,37 C20.315000534057617,37 21.107999801635742,-31.340999603271484 21.19300079345703,-59.59199905395508 C21.197999954223633,-61.19900131225586 21.201000213623047,-59.92599868774414 21.201000213623047,-61.25400161743164"/><g opacity="1" transform="matrix(1,0,0,1,0,0)"><path stroke-linecap="round" stroke-linejoin="round" fill-opacity="0" class="primary" stroke="rgb(18,19,49)" stroke-opacity="1" stroke-width="12" d=" M-19.593000411987305,-60.492000579833984 C-19.593000411987305,-59.071998596191406 -19.594999313354492,-51.512001037597656 -19.600000381469727,-49.83300018310547 C-19.673999786376953,-22.351999282836914 -20.315000534057617,37 -20.315000534057617,37 C-20.315000534057617,37 -0.004999999888241291,14.15999984741211 -0.004999999888241291,14.15999984741211 C-0.004999999888241291,14.15999984741211 20.315000534057617,37 20.315000534057617,37 C20.315000534057617,37 21.107999801635742,-31.340999603271484 21.19300079345703,-59.59199905395508 C21.197999954223633,-61.19900131225586 21.201000213623047,-59.92599868774414 21.201000213623047,-61.25400161743164"/></g></g></g></g></g><clipPath id="__lottie_element_12"><path d="M0,0 L430,0 L430,430 L0,430z"/></clipPath><mask id="__lottie_element_11_1" mask-type="alpha"><use xmlns:ns1="http://www.w3.org/1999/xlink" ns1:href="#__lottie_element_11"/></mask><g id="__lottie_element_36"><g transform="matrix(1,0,0,1,215,126.98999786376953)" opacity="1" style="display: block;"><path fill="rgb(255,0,0)" fill-opacity="1" d=" M-38.99700164794922,-37.40999984741211 C33.24300003051758,-37.40999984741211 141.67999267578125,-37.40999984741211 141.67999267578125,-37.40999984741211 C145.66200256347656,-37.409000396728516 149.6060028076172,-38.19200134277344 153.28500366210938,-39.71500015258789 C156.96400451660156,-41.237998962402344 160.30599975585938,-43.47200012207031 163.1219940185547,-46.28799819946289 C165.93800354003906,-49.104000091552734 168.1719970703125,-52.44599914550781 169.69500732421875,-56.125 C171.21800231933594,-59.80400085449219 172.00100708007812,-63.74800109863281 172,-67.7300033569336 C172,-67.7300033569336 172,-67.7300033569336 172,-67.7300033569336 C172,-67.7300033569336 -111.37000274658203,-67.7300033569336 -111.37000274658203,-67.7300033569336 C-144.85000610351562,-67.7300033569336 -172,-37.400001525878906 -172,0.009999999776482582 C-172,41.56999969482422 -140.5749969482422,5.434999942779541 -140.5749969482422,0.41499999165534973 C-140.5749969482422,-4.605000019073486 -139.5760040283203,-9.574000358581543 -137.63600158691406,-14.204000473022461 C-135.6959991455078,-18.833999633789062 -132.85499572753906,-23.0310001373291 -129.27699279785156,-26.551000595092773 C-125.6989974975586,-30.070999145507812 -121.45600128173828,-32.845001220703125 -116.79499816894531,-34.70899963378906 C-112.13400268554688,-36.573001861572266 -107.14900207519531,-37.492000579833984 -102.12999725341797,-37.40999984741211 C-102.12999725341797,-37.40999984741211 -85.59300231933594,-37.40999984741211 -61.13199996948242,-37.40999984741211"/><g opacity="1" transform="matrix(1,0,0,1,0,0)"/></g></g><filter id="__lottie_element_39" filterUnits="objectBoundingBox" x="0%" y="0%" width="100%" height="100%"><feComponentTransfer in="SourceGraphic"><feFuncA type="table" tableValues="1.0 0.0"/></feComponentTransfer></filter><mask id="__lottie_element_36_2" mask-type="alpha"><g filter="url(#__lottie_element_39)"><rect width="430" height="430" x="0" y="0" fill="#ffffff" opacity="0"/><use xmlns:ns2="http://www.w3.org/1999/xlink" ns2:href="#__lottie_element_36"/></g></mask></defs><g clip-path="url(#__lottie_element_2)"><g clip-path="url(#__lottie_element_4)" transform="matrix(1,0,0,1,0,0)" opacity="1" style="display: block;"><g mask="url(#__lottie_element_11_1)" style="display: block;"><g filter="url(#__lottie_element_10)" transform="matrix(-0.1674155443906784,-2.3941538333892822,2.3941538333892822,-0.1674155443906784,271.9410095214844,219.4600067138672)" opacity="1"><g class="design" opacity="1" transform="matrix(1,0,0,1,0,0)"><path class="primary" fill="rgb(255,255,255)" fill-opacity="1" d=" M0,-250 C137.97500610351562,-250 250,-137.97500610351562 250,0 C250,137.97500610351562 137.97500610351562,250 0,250 C-137.97500610351562,250 -250,137.97500610351562 -250,0 C-250,-137.97500610351562 -137.97500610351562,-250 0,-250z"/></g><g class="design" opacity="1" transform="matrix(1,0,0,1,113.24199676513672,-118.88400268554688)"><path class="secondary" fill="rgb(156,244,223)" fill-opacity="1" d=" M0,-176.5 C97.47799682617188,-176.5 176.5,-97.47799682617188 176.5,0 C176.5,97.47799682617188 97.47799682617188,176.5 0,176.5 C-43.948001861572266,176.5 -74.39600372314453,142.4429931640625 -105.29000091552734,115.86900329589844 C-142.92100524902344,83.5 -176.5,53.53099822998047 -176.5,0 C-176.5,-97.47799682617188 -97.47799682617188,-176.5 0,-176.5z"/></g></g></g></g></g></svg>